<svg width="400" height="80" viewBox="0 0 400 80" xmlns="http://www.w3.org/2000/svg" role="img" aria-label="Breath wave signature motif">
  <path d="M0 40 C20 40, 30 15, 60 40 C90 65, 100 40, 130 40 C160 40, 170 15, 200 40 C230 65, 240 40, 270 40 C300 40, 310 15, 340 40 C370 65, 380 40, 400 40" stroke="#2A5C6B" stroke-width="2.5" fill="none" stroke-linecap="round" opacity="0.5"></path>
  <path d="M0 40 C20 40, 30 20, 60 40 C90 60, 100 40, 130 40 C160 40, 170 20, 200 40 C230 60, 240 40, 270 40 C300 40, 310 20, 340 40 C370 60, 380 40, 400 40" stroke="#C4956A" stroke-width="1.5" fill="none" stroke-linecap="round" opacity="0.6"></path>
</svg>